<?xml version="1.0" encoding="UTF-8"?>
<svg id="Layer_1" data-name="Layer 1" xmlns="http://www.w3.org/2000/svg" viewBox="0 0 370.21 280.85">
  <defs>
    <style>
      .cls-1, .cls-2 {
        stroke-width: 0px;
      }

      .cls-2 {
        fill: #231f20;
      }
    </style>
  </defs>
  <polygon class="cls-2" points="73.98 134.5 73.98 10.6 152.64 10.6 73.98 134.5"/>
  <polygon class="cls-2" points="73.76 145.23 82.58 145.23 163.85 271.17 73.76 271.17 73.76 145.23"/>
  <rect class="cls-2" x="19.91" y="10.08" width="26.22" height="261.22"/>
  <path class="cls-1" d="M343.11,196.49c-1.23,4.57-2.99,8.99-5.2,13.17-2.26,4.27-3.67,6.9-7.72,12.44-6.07,8.31-6.39,8.93-11.37,13.62-7.72,7.22-15.04,12.52-25.1,16.73-10.07,4.21-19.49,5.06-29.06,5.06l-1.37-45.78c-34.61-1.32-62.3-32.29-62.3-70.32s27.38-68.66,61.72-70.31l-.03-7.21.28-41.13c3.23-.84,28.22,3.23,42,11.6,13.78,8.36,24.88,19.71,33.28,34.03,2.74,4.69,4.45,7.47,4.45,7.47l15.61-7.93s-8.08-15.89-17.87-27.08c-20.56-23.47-49.31-34.35-77.5-34.35-16.44,0-36.67,5.67-50.86,14.09-19.48,11.8-34.69,31.35-45.36,53.61-9.98,20.94-15.52,43.61-15.52,67.2s5.6,48.62,15.19,69.2c11.55,24.79,29.07,42.73,51.19,54.17,13.8,7.22,30.55,11.23,44.26,11.23,9.4,0,21.2-.5,31.38-3.99,16.93-5.78,30.77-17.37,43.3-32.18,6.77-8.42,10.73-13.82,18.42-31.64l3.38-8.16s-11.81-3.31-15.03-4.13c0,0-.05.2-.15.56Z"/>
</svg>